<svg xmlns="http://www.w3.org/2000/svg" xmlns:xlink="http://www.w3.org/1999/xlink" viewBox="0 0 370.41 285.99"><defs><style>.cls-1{fill:url(#radial-gradient);}</style><radialGradient id="radial-gradient" cx="6778.98" cy="6068.87" r="25.68" gradientTransform="matrix(-7.22, 7.22, 7.21, 7.21, 5453.06, -92670.91)" gradientUnits="userSpaceOnUse"><stop offset="0" stop-color="#61a6ed"/><stop offset="1" stop-color="#257edb"/></radialGradient></defs><title>LauncherIcon</title><g id="Layer_2" data-name="Layer 2"><g id="Layer_1-2" data-name="Layer 1"><g id="layer1"><g id="g13562"><path id="path13218" class="cls-1" d="M108.77,51.92c-9.15.26-17.25,3.06-22.47,9C70,79.7,87.95,97.12,94.19,120.8c8.33,31.6-1.14,65.23,24.15,87.35,8.71,7.62,19.23,9.62,29.33,10.56-13.29,15.65-21.3,37.36-16.93,59.67,7.63,39,46.22,65,84.49,58.5a67.61,67.61,0,0,0,48.94-35.36.86.86,0,0,1,1.51,0,67.62,67.62,0,0,0,48.94,35.36c38.26,6.53,76.69-19.46,84.32-58.5,4.36-22.3-3.49-44-16.77-59.67,10.11-.94,20.46-2.94,29.17-10.56,25.29-22.12,15.81-55.75,24.15-87.35,6.24-23.68,24.19-41.1,7.86-59.83-5.22-6-13.13-8.79-22.28-9-20.14-.57-41.11,7.51-62.37,17.59S314,96.88,299.24,115.4L353.7,147l-86.14,50L260,291.94l-2-99.26-10.19-5.91-7.49,94-2-99.51-10.21-5.93-7.47,94.33-2-99.82L208.61,164l-7.51,94.56-2-100.1L189,152.58l-7.54,94.84-2-100.38,52.15-30.29c-14.93-19.14-39.28-37.17-60.5-47.24S129.29,51.47,108.77,51.92Z" transform="translate(-79.62 -51.89)"/></g></g></g></g></svg>